<svg xmlns="http://www.w3.org/2000/svg" xmlns:xlink="http://www.w3.org/1999/xlink" width="500" zoomAndPan="magnify" viewBox="0 0 375 374.999991" height="500" preserveAspectRatio="xMidYMid meet" version="1.0"><defs><g/><clipPath id="578526e57b"><path d="M 92.890625 185 L 281.890625 185 L 281.890625 198.863281 L 92.890625 198.863281 Z M 92.890625 185 " clip-rule="nonzero"/></clipPath><clipPath id="a76d77d7bb"><path d="M 112 151.613281 L 186 151.613281 L 186 186 L 112 186 Z M 112 151.613281 " clip-rule="nonzero"/></clipPath><clipPath id="03fd7be8cc"><path d="M 188 151.613281 L 262 151.613281 L 262 186 L 188 186 Z M 188 151.613281 " clip-rule="nonzero"/></clipPath><clipPath id="c6ee7db22b"><path d="M 122.550781 93 L 201 93 L 201 117 L 122.550781 117 Z M 122.550781 93 " clip-rule="nonzero"/></clipPath><clipPath id="58518ba585"><path d="M 189 119 L 246 119 L 246 135.039062 L 189 135.039062 Z M 189 119 " clip-rule="nonzero"/></clipPath><clipPath id="794dc46af6"><path d="M 161 56 L 252.300781 56 L 252.300781 83 L 161 83 Z M 161 56 " clip-rule="nonzero"/></clipPath></defs><rect x="-37.5" width="450" fill="#ffffff" y="-37.499999" height="449.999989" fill-opacity="1"/><rect x="-37.5" width="450" fill="#4f39f6" y="-37.499999" height="449.999989" fill-opacity="1"/><g clip-path="url(#578526e57b)"><path fill="#ffffff" d="M 279.132812 198.910156 L 194.886719 198.910156 C 194.148438 198.910156 193.40625 198.617188 192.816406 198.023438 L 187.496094 192.851562 L 182.175781 198.023438 C 181.582031 198.617188 180.84375 198.910156 180.105469 198.910156 L 95.859375 198.910156 C 94.230469 198.910156 92.902344 197.582031 92.902344 195.957031 C 92.902344 194.328125 94.230469 193 95.859375 193 L 178.921875 193 L 185.425781 186.644531 C 186.609375 185.460938 188.382812 185.460938 189.566406 186.644531 L 196.066406 193 L 279.132812 193 C 280.757812 193 282.089844 194.328125 282.089844 195.957031 C 282.089844 197.582031 280.757812 198.910156 279.132812 198.910156 Z M 279.132812 198.910156 " fill-opacity="1" fill-rule="nonzero"/></g><g clip-path="url(#a76d77d7bb)"><path fill="#ffffff" d="M 112.855469 157.378906 L 129.113281 151.613281 C 129.113281 151.613281 169.757812 152.351562 185.277344 176.296875 L 185.277344 185.019531 C 185.277344 185.019531 161.628906 157.378906 112.855469 157.378906 Z M 112.855469 157.378906 " fill-opacity="1" fill-rule="nonzero"/></g><path fill="#ffffff" d="M 109.160156 162.550781 L 118.027344 159.59375 C 118.027344 159.59375 159.414062 159.59375 183.0625 184.277344 C 183.0625 184.425781 152.023438 164.03125 109.160156 162.550781 Z M 109.160156 162.550781 " fill-opacity="1" fill-rule="nonzero"/><path fill="#ffffff" d="M 104.726562 175.558594 L 109.160156 166.839844 C 109.160156 166.839844 156.457031 168.316406 181.582031 184.277344 C 181.582031 184.425781 122.460938 171.273438 104.726562 175.558594 Z M 104.726562 175.558594 " fill-opacity="1" fill-rule="nonzero"/><path fill="#ffffff" d="M 101.769531 182.949219 C 101.769531 182.949219 128.375 174.226562 181.582031 187.382812 C 181.582031 187.382812 126.894531 181.617188 100.292969 187.382812 Z M 101.769531 182.949219 " fill-opacity="1" fill-rule="nonzero"/><g clip-path="url(#03fd7be8cc)"><path fill="#ffffff" d="M 261.398438 157.378906 L 245.136719 151.613281 C 245.136719 151.613281 204.492188 152.351562 188.972656 176.296875 L 188.972656 185.019531 C 188.972656 185.019531 212.621094 157.378906 261.398438 157.378906 Z M 261.398438 157.378906 " fill-opacity="1" fill-rule="nonzero"/></g><path fill="#ffffff" d="M 265.09375 162.550781 L 256.222656 159.59375 C 256.222656 159.59375 214.839844 159.59375 191.191406 184.277344 C 191.191406 184.425781 222.230469 164.03125 265.09375 162.550781 Z M 265.09375 162.550781 " fill-opacity="1" fill-rule="nonzero"/><path fill="#ffffff" d="M 269.527344 175.558594 L 265.09375 166.839844 C 265.09375 166.839844 217.796875 168.316406 192.667969 184.277344 C 192.667969 184.425781 251.789062 171.273438 269.527344 175.558594 Z M 269.527344 175.558594 " fill-opacity="1" fill-rule="nonzero"/><path fill="#ffffff" d="M 272.480469 182.949219 C 272.480469 182.949219 245.878906 174.226562 192.667969 187.382812 C 192.667969 187.382812 247.355469 181.617188 273.960938 187.382812 Z M 272.480469 182.949219 " fill-opacity="1" fill-rule="nonzero"/><g clip-path="url(#c6ee7db22b)"><path fill="#ffffff" d="M 161.445312 103.9375 C 160.683594 102.925781 145.617188 83.371094 122.640625 101.207031 C 122.640625 101.207031 137.0625 97.011719 145.59375 100.339844 C 150.230469 102.152344 160.542969 114.984375 161.410156 116.070312 C 161.421875 116.085938 161.433594 116.101562 161.445312 116.113281 C 161.449219 116.101562 161.464844 116.085938 161.476562 116.070312 C 162.34375 114.984375 172.65625 102.152344 177.292969 100.339844 C 185.820312 97.011719 200.246094 101.207031 200.246094 101.207031 C 177.273438 83.371094 162.199219 102.925781 161.445312 103.9375 " fill-opacity="1" fill-rule="nonzero"/></g><g clip-path="url(#58518ba585)"><path fill="#ffffff" d="M 217.511719 126.480469 C 216.964844 125.753906 206.136719 111.703125 189.628906 124.519531 C 189.628906 124.519531 199.992188 121.503906 206.121094 123.898438 C 209.453125 125.195312 216.863281 134.421875 217.488281 135.199219 C 217.492188 135.207031 217.503906 135.222656 217.511719 135.230469 C 217.515625 135.222656 217.527344 135.207031 217.53125 135.199219 C 218.15625 134.421875 225.566406 125.195312 228.898438 123.898438 C 235.027344 121.503906 245.390625 124.519531 245.390625 124.519531 C 228.882812 111.703125 218.054688 125.753906 217.511719 126.480469 " fill-opacity="1" fill-rule="nonzero"/></g><g clip-path="url(#794dc46af6)"><path fill="#ffffff" d="M 206.894531 68.386719 C 206.003906 67.199219 188.351562 44.292969 161.445312 65.1875 C 161.445312 65.1875 178.339844 60.273438 188.328125 64.171875 C 193.761719 66.292969 205.839844 81.324219 206.855469 82.597656 C 206.867188 82.609375 206.882812 82.632812 206.894531 82.644531 C 206.902344 82.632812 206.917969 82.609375 206.929688 82.597656 C 207.945312 81.324219 220.023438 66.292969 225.457031 64.171875 C 235.445312 60.273438 252.339844 65.1875 252.339844 65.1875 C 225.433594 44.292969 207.78125 67.199219 206.894531 68.386719 " fill-opacity="1" fill-rule="nonzero"/></g><g fill="#ffffff" fill-opacity="1"><g transform="translate(95.806697, 242.844783)"><g><path d="M 12.828125 -10.8125 C 13.597656 -10.695312 14.296875 -10.382812 14.921875 -9.875 C 15.554688 -9.375 16.054688 -8.753906 16.421875 -8.015625 C 16.796875 -7.273438 16.984375 -6.484375 16.984375 -5.640625 C 16.984375 -4.566406 16.710938 -3.601562 16.171875 -2.75 C 15.628906 -1.894531 14.84375 -1.222656 13.8125 -0.734375 C 12.78125 -0.242188 11.5625 0 10.15625 0 L 2.3125 0 L 2.3125 -21 L 9.84375 -21 C 11.269531 -21 12.484375 -20.757812 13.484375 -20.28125 C 14.492188 -19.8125 15.25 -19.175781 15.75 -18.375 C 16.257812 -17.570312 16.515625 -16.671875 16.515625 -15.671875 C 16.515625 -14.421875 16.175781 -13.390625 15.5 -12.578125 C 14.820312 -11.765625 13.929688 -11.175781 12.828125 -10.8125 Z M 5.0625 -11.921875 L 9.671875 -11.921875 C 10.953125 -11.921875 11.941406 -12.222656 12.640625 -12.828125 C 13.347656 -13.429688 13.703125 -14.265625 13.703125 -15.328125 C 13.703125 -16.398438 13.347656 -17.234375 12.640625 -17.828125 C 11.941406 -18.429688 10.929688 -18.734375 9.609375 -18.734375 L 5.0625 -18.734375 Z M 9.90625 -2.265625 C 11.269531 -2.265625 12.332031 -2.582031 13.09375 -3.21875 C 13.863281 -3.863281 14.25 -4.757812 14.25 -5.90625 C 14.25 -7.070312 13.847656 -7.988281 13.046875 -8.65625 C 12.242188 -9.332031 11.171875 -9.671875 9.828125 -9.671875 L 5.0625 -9.671875 L 5.0625 -2.265625 Z M 9.90625 -2.265625 "/></g></g></g><g fill="#ffffff" fill-opacity="1"><g transform="translate(114.275531, 242.844783)"><g><path d="M 11.84375 0.203125 C 9.894531 0.203125 8.113281 -0.25 6.5 -1.15625 C 4.894531 -2.070312 3.625 -3.347656 2.6875 -4.984375 C 1.757812 -6.617188 1.296875 -8.460938 1.296875 -10.515625 C 1.296875 -12.566406 1.757812 -14.410156 2.6875 -16.046875 C 3.625 -17.679688 4.894531 -18.953125 6.5 -19.859375 C 8.113281 -20.773438 9.894531 -21.234375 11.84375 -21.234375 C 13.8125 -21.234375 15.597656 -20.773438 17.203125 -19.859375 C 18.804688 -18.953125 20.066406 -17.679688 20.984375 -16.046875 C 21.910156 -14.421875 22.375 -12.578125 22.375 -10.515625 C 22.375 -8.441406 21.910156 -6.59375 20.984375 -4.96875 C 20.066406 -3.34375 18.804688 -2.070312 17.203125 -1.15625 C 15.597656 -0.25 13.8125 0.203125 11.84375 0.203125 Z M 11.84375 -2.171875 C 13.300781 -2.171875 14.617188 -2.507812 15.796875 -3.1875 C 16.972656 -3.875 17.894531 -4.847656 18.5625 -6.109375 C 19.238281 -7.378906 19.578125 -8.847656 19.578125 -10.515625 C 19.578125 -12.203125 19.238281 -13.671875 18.5625 -14.921875 C 17.894531 -16.179688 16.976562 -17.148438 15.8125 -17.828125 C 14.644531 -18.515625 13.320312 -18.859375 11.84375 -18.859375 C 10.351562 -18.859375 9.023438 -18.515625 7.859375 -17.828125 C 6.691406 -17.148438 5.769531 -16.179688 5.09375 -14.921875 C 4.425781 -13.671875 4.09375 -12.203125 4.09375 -10.515625 C 4.09375 -8.847656 4.425781 -7.378906 5.09375 -6.109375 C 5.769531 -4.847656 6.695312 -3.875 7.875 -3.1875 C 9.050781 -2.507812 10.375 -2.171875 11.84375 -2.171875 Z M 11.84375 -2.171875 "/></g></g></g><g fill="#ffffff" fill-opacity="1"><g transform="translate(137.956608, 242.844783)"><g><path d="M 11.84375 0.203125 C 9.894531 0.203125 8.113281 -0.25 6.5 -1.15625 C 4.894531 -2.070312 3.625 -3.347656 2.6875 -4.984375 C 1.757812 -6.617188 1.296875 -8.460938 1.296875 -10.515625 C 1.296875 -12.566406 1.757812 -14.410156 2.6875 -16.046875 C 3.625 -17.679688 4.894531 -18.953125 6.5 -19.859375 C 8.113281 -20.773438 9.894531 -21.234375 11.84375 -21.234375 C 13.8125 -21.234375 15.597656 -20.773438 17.203125 -19.859375 C 18.804688 -18.953125 20.066406 -17.679688 20.984375 -16.046875 C 21.910156 -14.421875 22.375 -12.578125 22.375 -10.515625 C 22.375 -8.441406 21.910156 -6.59375 20.984375 -4.96875 C 20.066406 -3.34375 18.804688 -2.070312 17.203125 -1.15625 C 15.597656 -0.25 13.8125 0.203125 11.84375 0.203125 Z M 11.84375 -2.171875 C 13.300781 -2.171875 14.617188 -2.507812 15.796875 -3.1875 C 16.972656 -3.875 17.894531 -4.847656 18.5625 -6.109375 C 19.238281 -7.378906 19.578125 -8.847656 19.578125 -10.515625 C 19.578125 -12.203125 19.238281 -13.671875 18.5625 -14.921875 C 17.894531 -16.179688 16.976562 -17.148438 15.8125 -17.828125 C 14.644531 -18.515625 13.320312 -18.859375 11.84375 -18.859375 C 10.351562 -18.859375 9.023438 -18.515625 7.859375 -17.828125 C 6.691406 -17.148438 5.769531 -16.179688 5.09375 -14.921875 C 4.425781 -13.671875 4.09375 -12.203125 4.09375 -10.515625 C 4.09375 -8.847656 4.425781 -7.378906 5.09375 -6.109375 C 5.769531 -4.847656 6.695312 -3.875 7.875 -3.1875 C 9.050781 -2.507812 10.375 -2.171875 11.84375 -2.171875 Z M 11.84375 -2.171875 "/></g></g></g><g fill="#ffffff" fill-opacity="1"><g transform="translate(161.637686, 242.844783)"><g><path d="M 13.703125 0 L 5.0625 -9.578125 L 5.0625 0 L 2.3125 0 L 2.3125 -21 L 5.0625 -21 L 5.0625 -11.265625 L 13.734375 -21 L 17.203125 -21 L 7.6875 -10.484375 L 17.296875 0 Z M 13.703125 0 "/></g></g></g><g fill="#ffffff" fill-opacity="1"><g transform="translate(179.684721, 242.844783)"><g/></g></g><g fill="#ffffff" fill-opacity="1"><g transform="translate(187.729052, 242.844783)"><g><path d="M 8.984375 0.203125 C 7.597656 0.203125 6.351562 -0.0390625 5.25 -0.53125 C 4.15625 -1.019531 3.296875 -1.703125 2.671875 -2.578125 C 2.054688 -3.453125 1.738281 -4.460938 1.71875 -5.609375 L 4.640625 -5.609375 C 4.742188 -4.617188 5.148438 -3.785156 5.859375 -3.109375 C 6.566406 -2.441406 7.609375 -2.109375 8.984375 -2.109375 C 10.285156 -2.109375 11.3125 -2.429688 12.0625 -3.078125 C 12.8125 -3.734375 13.1875 -4.578125 13.1875 -5.609375 C 13.1875 -6.410156 12.96875 -7.0625 12.53125 -7.5625 C 12.09375 -8.0625 11.539062 -8.441406 10.875 -8.703125 C 10.207031 -8.960938 9.3125 -9.242188 8.1875 -9.546875 C 6.800781 -9.910156 5.691406 -10.269531 4.859375 -10.625 C 4.023438 -10.988281 3.3125 -11.554688 2.71875 -12.328125 C 2.132812 -13.109375 1.84375 -14.148438 1.84375 -15.453125 C 1.84375 -16.597656 2.128906 -17.613281 2.703125 -18.5 C 3.285156 -19.382812 4.101562 -20.066406 5.15625 -20.546875 C 6.21875 -21.023438 7.429688 -21.265625 8.796875 -21.265625 C 10.765625 -21.265625 12.375 -20.769531 13.625 -19.78125 C 14.882812 -18.800781 15.59375 -17.5 15.75 -15.875 L 12.75 -15.875 C 12.644531 -16.675781 12.21875 -17.382812 11.46875 -18 C 10.726562 -18.613281 9.75 -18.921875 8.53125 -18.921875 C 7.382812 -18.921875 6.445312 -18.625 5.71875 -18.03125 C 5 -17.4375 4.640625 -16.609375 4.640625 -15.546875 C 4.640625 -14.785156 4.851562 -14.160156 5.28125 -13.671875 C 5.71875 -13.191406 6.25 -12.828125 6.875 -12.578125 C 7.507812 -12.328125 8.398438 -12.039062 9.546875 -11.71875 C 10.929688 -11.332031 12.046875 -10.953125 12.890625 -10.578125 C 13.734375 -10.210938 14.457031 -9.644531 15.0625 -8.875 C 15.664062 -8.101562 15.96875 -7.050781 15.96875 -5.71875 C 15.96875 -4.695312 15.695312 -3.734375 15.15625 -2.828125 C 14.613281 -1.921875 13.804688 -1.1875 12.734375 -0.625 C 11.671875 -0.0703125 10.421875 0.203125 8.984375 0.203125 Z M 8.984375 0.203125 "/></g></g></g><g fill="#ffffff" fill-opacity="1"><g transform="translate(205.414533, 242.844783)"><g><path d="M 15.25 -21 L 15.25 -18.765625 L 9.515625 -18.765625 L 9.515625 0 L 6.78125 0 L 6.78125 -18.765625 L 1.03125 -18.765625 L 1.03125 -21 Z M 15.25 -21 "/></g></g></g><g fill="#ffffff" fill-opacity="1"><g transform="translate(221.7141, 242.844783)"><g><path d="M 11.84375 0.203125 C 9.894531 0.203125 8.113281 -0.25 6.5 -1.15625 C 4.894531 -2.070312 3.625 -3.347656 2.6875 -4.984375 C 1.757812 -6.617188 1.296875 -8.460938 1.296875 -10.515625 C 1.296875 -12.566406 1.757812 -14.410156 2.6875 -16.046875 C 3.625 -17.679688 4.894531 -18.953125 6.5 -19.859375 C 8.113281 -20.773438 9.894531 -21.234375 11.84375 -21.234375 C 13.8125 -21.234375 15.597656 -20.773438 17.203125 -19.859375 C 18.804688 -18.953125 20.066406 -17.679688 20.984375 -16.046875 C 21.910156 -14.421875 22.375 -12.578125 22.375 -10.515625 C 22.375 -8.441406 21.910156 -6.59375 20.984375 -4.96875 C 20.066406 -3.34375 18.804688 -2.070312 17.203125 -1.15625 C 15.597656 -0.25 13.8125 0.203125 11.84375 0.203125 Z M 11.84375 -2.171875 C 13.300781 -2.171875 14.617188 -2.507812 15.796875 -3.1875 C 16.972656 -3.875 17.894531 -4.847656 18.5625 -6.109375 C 19.238281 -7.378906 19.578125 -8.847656 19.578125 -10.515625 C 19.578125 -12.203125 19.238281 -13.671875 18.5625 -14.921875 C 17.894531 -16.179688 16.976562 -17.148438 15.8125 -17.828125 C 14.644531 -18.515625 13.320312 -18.859375 11.84375 -18.859375 C 10.351562 -18.859375 9.023438 -18.515625 7.859375 -17.828125 C 6.691406 -17.148438 5.769531 -16.179688 5.09375 -14.921875 C 4.425781 -13.671875 4.09375 -12.203125 4.09375 -10.515625 C 4.09375 -8.847656 4.425781 -7.378906 5.09375 -6.109375 C 5.769531 -4.847656 6.695312 -3.875 7.875 -3.1875 C 9.050781 -2.507812 10.375 -2.171875 11.84375 -2.171875 Z M 11.84375 -2.171875 "/></g></g></g><g fill="#ffffff" fill-opacity="1"><g transform="translate(245.395177, 242.844783)"><g><path d="M 13.375 0 L 8.375 -8.578125 L 5.0625 -8.578125 L 5.0625 0 L 2.3125 0 L 2.3125 -21 L 9.09375 -21 C 10.6875 -21 12.03125 -20.726562 13.125 -20.1875 C 14.21875 -19.644531 15.035156 -18.910156 15.578125 -17.984375 C 16.117188 -17.054688 16.390625 -16.003906 16.390625 -14.828125 C 16.390625 -13.378906 15.972656 -12.101562 15.140625 -11 C 14.304688 -9.894531 13.054688 -9.160156 11.390625 -8.796875 L 16.65625 0 Z M 5.0625 -10.78125 L 9.09375 -10.78125 C 10.582031 -10.78125 11.695312 -11.144531 12.4375 -11.875 C 13.1875 -12.613281 13.5625 -13.597656 13.5625 -14.828125 C 13.5625 -16.066406 13.191406 -17.023438 12.453125 -17.703125 C 11.722656 -18.390625 10.601562 -18.734375 9.09375 -18.734375 L 5.0625 -18.734375 Z M 5.0625 -10.78125 "/></g></g></g><g fill="#ffffff" fill-opacity="1"><g transform="translate(263.713363, 242.844783)"><g><path d="M 5.0625 -18.765625 L 5.0625 -11.75 L 12.71875 -11.75 L 12.71875 -9.484375 L 5.0625 -9.484375 L 5.0625 -2.265625 L 13.609375 -2.265625 L 13.609375 0 L 2.3125 0 L 2.3125 -21.03125 L 13.609375 -21.03125 L 13.609375 -18.765625 Z M 5.0625 -18.765625 "/></g></g></g><g fill="#ffffff" fill-opacity="1"><g transform="translate(117.43877, 275.886691)"><g><path d="M 7.890625 -2.9375 C 7.890625 -3.445312 7.695312 -3.84375 7.3125 -4.125 C 6.925781 -4.414062 6.25 -4.660156 5.28125 -4.859375 C 4.320312 -5.066406 3.5625 -5.3125 3 -5.59375 C 2.4375 -5.882812 2.019531 -6.226562 1.75 -6.625 C 1.476562 -7.019531 1.34375 -7.488281 1.34375 -8.03125 C 1.34375 -8.945312 1.726562 -9.71875 2.5 -10.34375 C 3.269531 -10.96875 4.253906 -11.28125 5.453125 -11.28125 C 6.703125 -11.28125 7.71875 -10.957031 8.5 -10.3125 C 9.28125 -9.664062 9.671875 -8.835938 9.671875 -7.828125 L 7.765625 -7.828125 C 7.765625 -8.335938 7.546875 -8.78125 7.109375 -9.15625 C 6.671875 -9.539062 6.117188 -9.734375 5.453125 -9.734375 C 4.753906 -9.734375 4.210938 -9.582031 3.828125 -9.28125 C 3.441406 -8.976562 3.25 -8.582031 3.25 -8.09375 C 3.25 -7.632812 3.425781 -7.289062 3.78125 -7.0625 C 4.144531 -6.832031 4.800781 -6.609375 5.75 -6.390625 C 6.695312 -6.179688 7.460938 -5.929688 8.046875 -5.640625 C 8.628906 -5.347656 9.0625 -4.992188 9.34375 -4.578125 C 9.632812 -4.171875 9.78125 -3.671875 9.78125 -3.078125 C 9.78125 -2.085938 9.382812 -1.289062 8.59375 -0.6875 C 7.800781 -0.09375 6.773438 0.203125 5.515625 0.203125 C 4.617188 0.203125 3.828125 0.046875 3.140625 -0.265625 C 2.460938 -0.578125 1.929688 -1.015625 1.546875 -1.578125 C 1.160156 -2.140625 0.96875 -2.75 0.96875 -3.40625 L 2.859375 -3.40625 C 2.898438 -2.769531 3.15625 -2.265625 3.625 -1.890625 C 4.101562 -1.523438 4.734375 -1.34375 5.515625 -1.34375 C 6.222656 -1.34375 6.796875 -1.488281 7.234375 -1.78125 C 7.671875 -2.070312 7.890625 -2.457031 7.890625 -2.9375 Z M 7.890625 -2.9375 "/></g></g></g><g fill="#ffffff" fill-opacity="1"><g transform="translate(131.492772, 275.886691)"><g><path d="M 3.328125 -9.734375 C 4.171875 -10.765625 5.265625 -11.28125 6.609375 -11.28125 C 8.941406 -11.28125 10.117188 -9.960938 10.140625 -7.328125 L 10.140625 0 L 8.25 0 L 8.25 -7.328125 C 8.238281 -8.128906 8.054688 -8.71875 7.703125 -9.09375 C 7.347656 -9.476562 6.789062 -9.671875 6.03125 -9.671875 C 5.414062 -9.671875 4.875 -9.503906 4.40625 -9.171875 C 3.945312 -8.847656 3.585938 -8.421875 3.328125 -7.890625 L 3.328125 0 L 1.4375 0 L 1.4375 -15.734375 L 3.328125 -15.734375 Z M 3.328125 -9.734375 "/></g></g></g><g fill="#ffffff" fill-opacity="1"><g transform="translate(146.283387, 275.886691)"><g><path d="M 0.9375 -5.640625 C 0.9375 -6.722656 1.148438 -7.695312 1.578125 -8.5625 C 2.003906 -9.4375 2.597656 -10.109375 3.359375 -10.578125 C 4.117188 -11.046875 4.984375 -11.28125 5.953125 -11.28125 C 7.460938 -11.28125 8.679688 -10.757812 9.609375 -9.71875 C 10.546875 -8.675781 11.015625 -7.285156 11.015625 -5.546875 L 11.015625 -5.421875 C 11.015625 -4.335938 10.804688 -3.367188 10.390625 -2.515625 C 9.984375 -1.660156 9.394531 -0.992188 8.625 -0.515625 C 7.851562 -0.0351562 6.972656 0.203125 5.984375 0.203125 C 4.484375 0.203125 3.265625 -0.316406 2.328125 -1.359375 C 1.398438 -2.398438 0.9375 -3.785156 0.9375 -5.515625 Z M 2.84375 -5.421875 C 2.84375 -4.191406 3.125 -3.203125 3.6875 -2.453125 C 4.257812 -1.710938 5.023438 -1.34375 5.984375 -1.34375 C 6.941406 -1.34375 7.703125 -1.71875 8.265625 -2.46875 C 8.835938 -3.226562 9.125 -4.285156 9.125 -5.640625 C 9.125 -6.859375 8.832031 -7.84375 8.25 -8.59375 C 7.675781 -9.351562 6.910156 -9.734375 5.953125 -9.734375 C 5.023438 -9.734375 4.273438 -9.359375 3.703125 -8.609375 C 3.128906 -7.867188 2.84375 -6.804688 2.84375 -5.421875 Z M 2.84375 -5.421875 "/></g></g></g><g fill="#ffffff" fill-opacity="1"><g transform="translate(161.483232, 275.886691)"><g><path d="M 10.796875 -5.421875 C 10.796875 -3.734375 10.410156 -2.375 9.640625 -1.34375 C 8.867188 -0.3125 7.820312 0.203125 6.5 0.203125 C 5.15625 0.203125 4.097656 -0.222656 3.328125 -1.078125 L 3.328125 4.265625 L 1.4375 4.265625 L 1.4375 -11.078125 L 3.15625 -11.078125 L 3.25 -9.84375 C 4.019531 -10.800781 5.09375 -11.28125 6.46875 -11.28125 C 7.800781 -11.28125 8.851562 -10.773438 9.625 -9.765625 C 10.40625 -8.765625 10.796875 -7.375 10.796875 -5.59375 Z M 8.890625 -5.625 C 8.890625 -6.875 8.625 -7.859375 8.09375 -8.578125 C 7.5625 -9.304688 6.832031 -9.671875 5.90625 -9.671875 C 4.757812 -9.671875 3.898438 -9.164062 3.328125 -8.15625 L 3.328125 -2.859375 C 3.890625 -1.847656 4.753906 -1.34375 5.921875 -1.34375 C 6.835938 -1.34375 7.5625 -1.703125 8.09375 -2.421875 C 8.625 -3.140625 8.890625 -4.207031 8.890625 -5.625 Z M 8.890625 -5.625 "/></g></g></g><g fill="#ffffff" fill-opacity="1"><g transform="translate(176.488695, 275.886691)"><g/></g></g><g fill="#ffffff" fill-opacity="1"><g transform="translate(184.926015, 275.886691)"><g><path d="M 0.9375 -5.640625 C 0.9375 -6.722656 1.148438 -7.695312 1.578125 -8.5625 C 2.003906 -9.4375 2.597656 -10.109375 3.359375 -10.578125 C 4.117188 -11.046875 4.984375 -11.28125 5.953125 -11.28125 C 7.460938 -11.28125 8.679688 -10.757812 9.609375 -9.71875 C 10.546875 -8.675781 11.015625 -7.285156 11.015625 -5.546875 L 11.015625 -5.421875 C 11.015625 -4.335938 10.804688 -3.367188 10.390625 -2.515625 C 9.984375 -1.660156 9.394531 -0.992188 8.625 -0.515625 C 7.851562 -0.0351562 6.972656 0.203125 5.984375 0.203125 C 4.484375 0.203125 3.265625 -0.316406 2.328125 -1.359375 C 1.398438 -2.398438 0.9375 -3.785156 0.9375 -5.515625 Z M 2.84375 -5.421875 C 2.84375 -4.191406 3.125 -3.203125 3.6875 -2.453125 C 4.257812 -1.710938 5.023438 -1.34375 5.984375 -1.34375 C 6.941406 -1.34375 7.703125 -1.71875 8.265625 -2.46875 C 8.835938 -3.226562 9.125 -4.285156 9.125 -5.640625 C 9.125 -6.859375 8.832031 -7.84375 8.25 -8.59375 C 7.675781 -9.351562 6.910156 -9.734375 5.953125 -9.734375 C 5.023438 -9.734375 4.273438 -9.359375 3.703125 -8.609375 C 3.128906 -7.867188 2.84375 -6.804688 2.84375 -5.421875 Z M 2.84375 -5.421875 "/></g></g></g><g fill="#ffffff" fill-opacity="1"><g transform="translate(200.125863, 275.886691)"><g><path d="M 3.21875 -11.078125 L 3.28125 -9.6875 C 4.132812 -10.75 5.242188 -11.28125 6.609375 -11.28125 C 8.941406 -11.28125 10.117188 -9.960938 10.140625 -7.328125 L 10.140625 0 L 8.25 0 L 8.25 -7.328125 C 8.238281 -8.128906 8.054688 -8.71875 7.703125 -9.09375 C 7.347656 -9.476562 6.789062 -9.671875 6.03125 -9.671875 C 5.414062 -9.671875 4.875 -9.503906 4.40625 -9.171875 C 3.945312 -8.847656 3.585938 -8.421875 3.328125 -7.890625 L 3.328125 0 L 1.4375 0 L 1.4375 -11.078125 Z M 3.21875 -11.078125 "/></g></g></g><g fill="#ffffff" fill-opacity="1"><g transform="translate(214.936942, 275.886691)"><g><path d="M 3.484375 0 L 1.59375 0 L 1.59375 -15.734375 L 3.484375 -15.734375 Z M 3.484375 0 "/></g></g></g><g fill="#ffffff" fill-opacity="1"><g transform="translate(223.271954, 275.886691)"><g><path d="M 3.484375 0 L 1.59375 0 L 1.59375 -11.078125 L 3.484375 -11.078125 Z M 1.4375 -14.015625 C 1.4375 -14.328125 1.53125 -14.585938 1.71875 -14.796875 C 1.90625 -15.003906 2.179688 -15.109375 2.546875 -15.109375 C 2.921875 -15.109375 3.203125 -15.003906 3.390625 -14.796875 C 3.585938 -14.585938 3.6875 -14.328125 3.6875 -14.015625 C 3.6875 -13.710938 3.585938 -13.457031 3.390625 -13.25 C 3.203125 -13.039062 2.921875 -12.9375 2.546875 -12.9375 C 2.179688 -12.9375 1.90625 -13.039062 1.71875 -13.25 C 1.53125 -13.457031 1.4375 -13.710938 1.4375 -14.015625 Z M 1.4375 -14.015625 "/></g></g></g><g fill="#ffffff" fill-opacity="1"><g transform="translate(231.606966, 275.886691)"><g><path d="M 3.21875 -11.078125 L 3.28125 -9.6875 C 4.132812 -10.75 5.242188 -11.28125 6.609375 -11.28125 C 8.941406 -11.28125 10.117188 -9.960938 10.140625 -7.328125 L 10.140625 0 L 8.25 0 L 8.25 -7.328125 C 8.238281 -8.128906 8.054688 -8.71875 7.703125 -9.09375 C 7.347656 -9.476562 6.789062 -9.671875 6.03125 -9.671875 C 5.414062 -9.671875 4.875 -9.503906 4.40625 -9.171875 C 3.945312 -8.847656 3.585938 -8.421875 3.328125 -7.890625 L 3.328125 0 L 1.4375 0 L 1.4375 -11.078125 Z M 3.21875 -11.078125 "/></g></g></g><g fill="#ffffff" fill-opacity="1"><g transform="translate(246.418038, 275.886691)"><g><path d="M 6.03125 0.203125 C 4.53125 0.203125 3.304688 -0.285156 2.359375 -1.265625 C 1.421875 -2.253906 0.953125 -3.578125 0.953125 -5.234375 L 0.953125 -5.578125 C 0.953125 -6.679688 1.160156 -7.660156 1.578125 -8.515625 C 2.003906 -9.378906 2.59375 -10.054688 3.34375 -10.546875 C 4.09375 -11.035156 4.910156 -11.28125 5.796875 -11.28125 C 7.234375 -11.28125 8.347656 -10.804688 9.140625 -9.859375 C 9.941406 -8.910156 10.34375 -7.550781 10.34375 -5.78125 L 10.34375 -5 L 2.84375 -5 C 2.875 -3.90625 3.191406 -3.019531 3.796875 -2.34375 C 4.410156 -1.675781 5.191406 -1.34375 6.140625 -1.34375 C 6.804688 -1.34375 7.367188 -1.476562 7.828125 -1.75 C 8.296875 -2.019531 8.703125 -2.382812 9.046875 -2.84375 L 10.203125 -1.9375 C 9.273438 -0.507812 7.882812 0.203125 6.03125 0.203125 Z M 5.796875 -9.734375 C 5.023438 -9.734375 4.378906 -9.453125 3.859375 -8.890625 C 3.347656 -8.335938 3.03125 -7.554688 2.90625 -6.546875 L 8.453125 -6.546875 L 8.453125 -6.703125 C 8.398438 -7.660156 8.140625 -8.40625 7.671875 -8.9375 C 7.210938 -9.46875 6.585938 -9.734375 5.796875 -9.734375 Z M 5.796875 -9.734375 "/></g></g></g></svg>